<svg width="70" height="59" viewBox="0 0 70 59" fill="none" xmlns="http://www.w3.org/2000/svg">
<path d="M69.537 41.7885C69.537 49.2415 63.4952 55.2834 56.0422 55.2834C48.5892 55.2834 42.5474 49.2415 42.5474 41.7885C42.5474 34.3355 48.5892 28.2937 56.0422 28.2937C63.4952 28.2937 69.537 34.3355 69.537 41.7885ZM50.5294 41.7885C50.5294 44.8331 52.9976 47.3013 56.0422 47.3013C59.0868 47.3013 61.555 44.8331 61.555 41.7885C61.555 38.7439 59.0868 36.2758 56.0422 36.2758C52.9976 36.2758 50.5294 38.7439 50.5294 41.7885Z" fill="#FF7622"/>
<path d="M38.4989 41.7885C38.4989 49.2415 32.4571 55.2834 25.0041 55.2834C17.5511 55.2834 11.5093 49.2415 11.5093 41.7885C11.5093 34.3355 17.5511 28.2937 25.0041 28.2937C32.4571 28.2937 38.4989 34.3355 38.4989 41.7885ZM19.4914 41.7885C19.4914 44.8331 21.9595 47.3013 25.0041 47.3013C28.0487 47.3013 30.5169 44.8331 30.5169 41.7885C30.5169 38.7439 28.0487 36.2758 25.0041 36.2758C21.9595 36.2758 19.4914 38.7439 19.4914 41.7885Z" fill="#FF7622"/>
<path fill-rule="evenodd" clip-rule="evenodd" d="M5.49854 51.2409C5.49854 50.9957 5.69728 50.797 5.94244 50.797H12.7017C12.9469 50.797 13.1456 50.9957 13.1456 51.2409C13.1456 51.4861 12.9469 51.6848 12.7017 51.6848H5.94244C5.69728 51.6848 5.49854 51.4861 5.49854 51.2409Z" fill="#FF7622"/>
<path fill-rule="evenodd" clip-rule="evenodd" d="M36.5771 51.2409C36.5771 50.9957 36.7759 50.797 37.0211 50.797H43.7803C44.0255 50.797 44.2242 50.9957 44.2242 51.2409C44.2242 51.4861 44.0255 51.6848 43.7803 51.6848H37.0211C36.7759 51.6848 36.5771 51.4861 36.5771 51.2409Z" fill="#FF7622"/>
<path fill-rule="evenodd" clip-rule="evenodd" d="M0.100586 54.8394C0.100586 54.5943 0.299331 54.3955 0.544495 54.3955L12.7017 54.3955C12.9468 54.3955 13.1456 54.5943 13.1456 54.8394C13.1456 55.0846 12.9468 55.2833 12.7017 55.2833L0.544495 55.2833C0.299331 55.2833 0.100586 55.0846 0.100586 54.8394Z" fill="#FF7622"/>
<path fill-rule="evenodd" clip-rule="evenodd" d="M31.1797 54.8394C31.1797 54.5943 31.3784 54.3955 31.6236 54.3955L43.7808 54.3955C44.026 54.3955 44.2247 54.5943 44.2247 54.8394C44.2247 55.0846 44.026 55.2833 43.7808 55.2833L31.6236 55.2833C31.3784 55.2833 31.1797 55.0846 31.1797 54.8394Z" fill="#FF7622"/>
<path fill-rule="evenodd" clip-rule="evenodd" d="M5.49854 58.438C5.49854 58.1929 5.69728 57.9941 5.94244 57.9941L18.0996 57.9941C18.3448 57.9941 18.5435 58.1929 18.5435 58.4381C18.5435 58.6832 18.3448 58.882 18.0996 58.882L5.94244 58.882C5.69728 58.882 5.49854 58.6832 5.49854 58.438Z" fill="#FF7622"/>
<path fill-rule="evenodd" clip-rule="evenodd" d="M36.5771 58.438C36.5771 58.1929 36.7759 57.9941 37.0211 57.9941L49.1782 57.9941C49.4234 57.9941 49.6222 58.1929 49.6222 58.4381C49.6222 58.6832 49.4234 58.882 49.1782 58.882L37.0211 58.882C36.7759 58.882 36.5771 58.6832 36.5771 58.438Z" fill="#FF7622"/>
<path d="M60.4543 26.7422C61.5382 26.7422 62.4264 25.8615 62.3269 24.7821C61.8713 19.84 59.7035 15.1874 56.1653 11.6492C52.1624 7.64627 46.7332 5.39746 41.0723 5.39746C35.4113 5.39746 29.9822 7.64627 25.9793 11.6492C22.441 15.1874 20.2733 19.84 19.8177 24.7821C19.7182 25.8615 20.6063 26.7422 21.6903 26.7422L41.0723 26.7422H60.4543Z" fill="#FF7622"/>
<path d="M43.7711 3.92542C43.7711 5.5514 42.5628 6.86952 41.0723 6.86952C39.5818 6.86952 38.3735 5.5514 38.3735 3.92542C38.3735 2.29944 39.5818 0.981323 41.0723 0.981323C42.5628 0.981323 43.7711 2.29944 43.7711 3.92542Z" fill="white"/>
<path fill-rule="evenodd" clip-rule="evenodd" d="M41.0722 1.96273C40.2024 1.96273 39.3548 2.75935 39.3548 3.92547C39.3548 5.09158 40.2024 5.8882 41.0722 5.8882C41.9421 5.8882 42.7896 5.09158 42.7896 3.92547C42.7896 2.75935 41.9421 1.96273 41.0722 1.96273ZM37.3921 3.92547C37.3921 1.83962 38.9611 0 41.0722 0C43.1833 0 44.7523 1.83962 44.7523 3.92547C44.7523 6.01131 43.1833 7.85093 41.0722 7.85093C38.9611 7.85093 37.3921 6.01131 37.3921 3.92547Z" fill="#FF7622"/>
<path d="M32.3568 12.0222C32.1187 11.6268 31.6056 11.4947 31.2186 11.7462C28.2927 13.6475 25.9963 16.3541 24.6145 19.5294C24.426 19.9627 24.6532 20.4572 25.0967 20.6203C25.5345 20.7814 26.0182 20.5583 26.2061 20.1313C27.446 17.3144 29.4829 14.9088 32.0723 13.2035C32.4644 12.9452 32.599 12.4244 32.3568 12.0222Z" fill="white"/>
<path d="M35.767 10.4994C35.6217 10.0611 35.1492 9.82009 34.7167 9.98201C34.2534 10.1555 33.7976 10.3478 33.3504 10.5586C32.9261 10.7586 32.7719 11.2764 32.9964 11.6882C33.2174 12.0934 33.7224 12.2432 34.1406 12.048C34.4992 11.8807 34.864 11.7263 35.2341 11.5854C35.6707 11.4191 35.9141 10.9428 35.767 10.4994Z" fill="white"/>
</svg>
